<?xml version="1.0" encoding="UTF-8" standalone="no"?>
<svg
   viewBox="0 0 90 90"
   width="90mm"
   height="90mm"
   version="1.1"
   id="svg6"
   sodipodi:docname="qrcode-TMNL-A250DE-90-0-0-mm.svg"
   inkscape:version="1.1.2 (0a00cf5339, 2022-02-04)"
   xmlns:inkscape="http://www.inkscape.org/namespaces/inkscape"
   xmlns:sodipodi="http://sodipodi.sourceforge.net/DTD/sodipodi-0.dtd"
   xmlns="http://www.w3.org/2000/svg"
   xmlns:svg="http://www.w3.org/2000/svg">
  <defs
     id="defs10" />
  <sodipodi:namedview
     id="namedview8"
     pagecolor="#ffffff"
     bordercolor="#666666"
     borderopacity="1.0"
     inkscape:pageshadow="2"
     inkscape:pageopacity="0.0"
     inkscape:pagecheckerboard="0"
     inkscape:document-units="mm"
     showgrid="false"
     fit-margin-top="0"
     fit-margin-left="0"
     fit-margin-right="0"
     fit-margin-bottom="0"
     inkscape:zoom="2.1137269"
     inkscape:cx="160.14368"
     inkscape:cy="169.84219"
     inkscape:window-width="1920"
     inkscape:window-height="1138"
     inkscape:window-x="1920"
     inkscape:window-y="0"
     inkscape:window-maximized="1"
     inkscape:current-layer="svg6" />
  <rect
     fill="none"
     stroke="#ff0000"
     stroke-width="0.264583"
     rx="0"
     ry="0"
     width="90"
     height="90"
     id="rect2"
     x="0"
     y="0" />
  <path
     d="M 0,0 H 2.195122 V 2.195122 H 0 Z M 2.195122,0 H 4.390244 V 2.195122 H 2.195122 Z M 4.390244,0 H 6.585366 V 2.195122 H 4.390244 Z M 6.585366,0 H 8.780488 V 2.195122 H 6.585366 Z M 8.780488,0 H 10.97561 V 2.195122 H 8.780488 Z m 2.195122,0 h 2.195122 V 2.195122 H 10.97561 Z m 2.195122,0 h 2.195122 v 2.195122 h -2.195122 z m 8.780488,0 h 2.195122 V 2.195122 H 21.95122 Z m 4.390244,0 h 2.195122 v 2.195122 h -2.195122 z m 2.195122,0 h 2.195122 v 2.195122 h -2.195122 z m 4.390244,0 h 2.195122 V 2.195122 H 32.92683 Z m 2.195122,0 h 2.195122 v 2.195122 h -2.195122 z m 4.390244,0 h 2.195122 v 2.195122 h -2.195122 z m 4.390244,0 h 2.195122 V 2.195122 H 43.90244 Z m 2.195122,0 h 2.195122 v 2.195122 h -2.195122 z m 4.390244,0 h 2.195122 v 2.195122 h -2.195122 z m 10.97561,0 h 2.195122 v 2.195122 h -2.195122 z m 2.195122,0 h 2.195122 v 2.195122 h -2.195122 z m 6.585366,0 h 2.195122 v 2.195122 h -2.195122 z m 4.390244,0 h 2.195122 v 2.195122 h -2.195122 z m 2.195122,0 h 2.195122 V 2.195122 H 76.82927 Z m 2.195122,0 h 2.195122 v 2.195122 h -2.195122 z m 2.195122,0 h 2.195122 v 2.195122 h -2.195122 z m 2.195122,0 h 2.195122 v 2.195122 h -2.195122 z m 2.195122,0 h 2.195122 v 2.195122 h -2.195122 z m 2.195122,0 h 2.195122 V 2.195122 H 87.80488 Z M 0,2.195122 H 2.195122 V 4.390244 H 0 Z m 13.170732,0 h 2.195122 v 2.195122 h -2.195122 z m 6.585366,0 h 2.195122 v 2.195122 h -2.195122 z m 6.585366,0 h 2.195122 v 2.195122 h -2.195122 z m 2.195122,0 h 2.195122 v 2.195122 h -2.195122 z m 2.195122,0 h 2.195122 v 2.195122 h -2.195122 z m 2.195122,0 h 2.195122 V 4.390244 H 32.92683 Z m 6.585366,0 h 2.195122 v 2.195122 h -2.195122 z m 2.195122,0 h 2.195122 v 2.195122 h -2.195122 z m 8.780488,0 h 2.195122 v 2.195122 h -2.195122 z m 2.195122,0 h 2.195122 v 2.195122 h -2.195122 z m 13.170732,0 h 2.195122 V 4.390244 H 65.85366 Z m 2.195122,0 h 2.195122 v 2.195122 h -2.195122 z m 6.585366,0 h 2.195122 v 2.195122 h -2.195122 z m 13.170732,0 h 2.195122 V 4.390244 H 87.80488 Z M 0,4.390244 H 2.195122 V 6.585366 H 0 Z m 4.390244,0 H 6.585366 V 6.585366 H 4.390244 Z m 2.195122,0 H 8.780488 V 6.585366 H 6.585366 Z m 2.195122,0 H 10.97561 V 6.585366 H 8.780488 Z m 4.390244,0 h 2.195122 v 2.195122 h -2.195122 z m 4.390244,0 h 2.195122 v 2.195122 h -2.195122 z m 4.390244,0 h 2.195122 V 6.585366 H 21.95122 Z m 6.585366,0 h 2.195122 v 2.195122 h -2.195122 z m 6.585366,0 h 2.195122 v 2.195122 h -2.195122 z m 8.780488,0 h 2.195122 V 6.585366 H 43.90244 Z m 4.390244,0 h 2.195122 v 2.195122 h -2.195122 z m 2.195122,0 h 2.195122 v 2.195122 h -2.195122 z m 17.560976,0 h 2.195122 v 2.195122 h -2.195122 z m 2.195122,0 h 2.195122 v 2.195122 h -2.195122 z m 4.390244,0 h 2.195122 v 2.195122 h -2.195122 z m 4.390244,0 h 2.195122 v 2.195122 h -2.195122 z m 2.195122,0 h 2.195122 v 2.195122 h -2.195122 z m 2.195122,0 h 2.195122 v 2.195122 h -2.195122 z m 4.390244,0 h 2.195122 V 6.585366 H 87.80488 Z M 0,6.585366 H 2.195122 V 8.780488 H 0 Z m 4.390244,0 H 6.585366 V 8.780488 H 4.390244 Z m 2.195122,0 H 8.780488 V 8.780488 H 6.585366 Z m 2.195122,0 H 10.97561 V 8.780488 H 8.780488 Z m 4.390244,0 h 2.195122 v 2.195122 h -2.195122 z m 4.390244,0 h 2.195122 v 2.195122 h -2.195122 z m 2.195122,0 h 2.195122 v 2.195122 h -2.195122 z m 6.585366,0 h 2.195122 v 2.195122 h -2.195122 z m 2.195122,0 h 2.195122 v 2.195122 h -2.195122 z m 8.780488,0 h 2.195122 v 2.195122 h -2.195122 z m 2.195122,0 h 2.195122 v 2.195122 h -2.195122 z m 4.390244,0 h 2.195122 V 8.780488 H 43.90244 Z m 2.195122,0 h 2.195122 v 2.195122 h -2.195122 z m 4.390244,0 h 2.195122 v 2.195122 h -2.195122 z m 2.195122,0 h 2.195122 v 2.195122 h -2.195122 z m 8.780488,0 h 2.195122 v 2.195122 h -2.195122 z m 4.390244,0 h 2.195122 V 8.780488 H 65.85366 Z m 2.195122,0 h 2.195122 v 2.195122 h -2.195122 z m 2.195122,0 h 2.195122 v 2.195122 h -2.195122 z m 4.390244,0 h 2.195122 v 2.195122 h -2.195122 z m 4.390244,0 h 2.195122 v 2.195122 h -2.195122 z m 2.195122,0 h 2.195122 v 2.195122 h -2.195122 z m 2.195122,0 h 2.195122 v 2.195122 h -2.195122 z m 4.390244,0 h 2.195122 V 8.780488 H 87.80488 Z M 0,8.780488 H 2.195122 V 10.97561 H 0 Z m 4.390244,0 H 6.585366 V 10.97561 H 4.390244 Z m 2.195122,0 H 8.780488 V 10.97561 H 6.585366 Z m 2.195122,0 H 10.97561 V 10.97561 H 8.780488 Z m 4.390244,0 h 2.195122 v 2.195122 h -2.195122 z m 10.97561,0 h 2.195122 v 2.195122 h -2.195122 z m 2.195122,0 h 2.195122 v 2.195122 h -2.195122 z m 4.390244,0 h 2.195122 v 2.195122 h -2.195122 z m 2.195122,0 h 2.195122 V 10.97561 H 32.92683 Z m 15.365854,0 h 2.195122 v 2.195122 h -2.195122 z m 2.195122,0 h 2.195122 v 2.195122 h -2.195122 z m 4.390244,0 h 2.195122 V 10.97561 H 54.87805 Z m 2.195122,0 h 2.195122 v 2.195122 h -2.195122 z m 2.195122,0 h 2.195122 v 2.195122 h -2.195122 z m 2.195122,0 h 2.195122 v 2.195122 h -2.195122 z m 13.170732,0 h 2.195122 v 2.195122 h -2.195122 z m 4.390244,0 h 2.195122 v 2.195122 h -2.195122 z m 2.195122,0 h 2.195122 v 2.195122 h -2.195122 z m 2.195122,0 h 2.195122 v 2.195122 h -2.195122 z m 4.390244,0 h 2.195122 V 10.97561 H 87.80488 Z M 0,10.97561 h 2.195122 v 2.195122 H 0 Z m 13.170732,0 h 2.195122 v 2.195122 h -2.195122 z m 6.585366,0 h 2.195122 v 2.195122 h -2.195122 z m 2.195122,0 h 2.195122 v 2.195122 H 21.95122 Z m 2.195122,0 h 2.195122 v 2.195122 h -2.195122 z m 4.390244,0 h 2.195122 v 2.195122 h -2.195122 z m 2.195122,0 h 2.195122 v 2.195122 h -2.195122 z m 2.195122,0 h 2.195122 v 2.195122 H 32.92683 Z m 2.195122,0 h 2.195122 v 2.195122 h -2.195122 z m 2.195122,0 h 2.195122 v 2.195122 h -2.195122 z m 2.195122,0 h 2.195122 v 2.195122 h -2.195122 z m 2.195122,0 h 2.195122 v 2.195122 h -2.195122 z m 6.585366,0 h 2.195122 v 2.195122 h -2.195122 z m 2.195122,0 h 2.195122 v 2.195122 h -2.195122 z m 4.390244,0 h 2.195122 v 2.195122 H 54.87805 Z m 6.585366,0 h 2.195122 v 2.195122 h -2.195122 z m 2.195122,0 h 2.195122 v 2.195122 h -2.195122 z m 10.97561,0 h 2.195122 v 2.195122 h -2.195122 z m 13.170732,0 h 2.195122 v 2.195122 H 87.80488 Z M 0,13.170732 h 2.195122 v 2.195122 H 0 Z m 2.195122,0 h 2.195122 v 2.195122 H 2.195122 Z m 2.195122,0 h 2.195122 v 2.195122 H 4.390244 Z m 2.195122,0 h 2.195122 v 2.195122 H 6.585366 Z m 2.195122,0 h 2.195122 v 2.195122 H 8.780488 Z m 2.195122,0 h 2.195122 v 2.195122 H 10.97561 Z m 2.195122,0 h 2.195122 v 2.195122 h -2.195122 z m 4.390244,0 h 2.195122 v 2.195122 h -2.195122 z m 4.390244,0 h 2.195122 v 2.195122 H 21.95122 Z m 4.390244,0 h 2.195122 v 2.195122 h -2.195122 z m 4.390244,0 h 2.195122 v 2.195122 h -2.195122 z m 4.390244,0 h 2.195122 v 2.195122 h -2.195122 z m 4.390244,0 h 2.195122 v 2.195122 h -2.195122 z m 4.390244,0 h 2.195122 v 2.195122 H 43.90244 Z m 4.390244,0 h 2.195122 v 2.195122 h -2.195122 z m 4.390244,0 h 2.195122 v 2.195122 h -2.195122 z m 4.390244,0 h 2.195122 v 2.195122 h -2.195122 z m 4.390244,0 h 2.195122 v 2.195122 h -2.195122 z m 4.390244,0 h 2.195122 v 2.195122 H 65.85366 Z m 4.390244,0 h 2.195122 v 2.195122 h -2.195122 z m 4.390244,0 h 2.195122 v 2.195122 h -2.195122 z m 2.195122,0 h 2.195122 v 2.195122 H 76.82927 Z m 2.195122,0 h 2.195122 v 2.195122 h -2.195122 z m 2.195122,0 h 2.195122 v 2.195122 h -2.195122 z m 2.195122,0 h 2.195122 v 2.195122 h -2.195122 z m 2.195122,0 h 2.195122 v 2.195122 h -2.195122 z m 2.195122,0 h 2.195122 v 2.195122 H 87.80488 Z m -57.073172,2.195122 h 2.195122 v 2.195122 h -2.195122 z m 13.170732,0 h 2.195122 v 2.195122 H 43.90244 Z m 2.195122,0 h 2.195122 v 2.195122 h -2.195122 z m 2.195122,0 h 2.195122 v 2.195122 h -2.195122 z m 2.195122,0 h 2.195122 v 2.195122 h -2.195122 z m 8.780488,0 h 2.195122 v 2.195122 h -2.195122 z m 2.195122,0 h 2.195122 v 2.195122 h -2.195122 z m 6.585366,0 h 2.195122 v 2.195122 h -2.195122 z m 2.195122,0 h 2.195122 v 2.195122 H 70.243904 Z M 6.585366,17.560976 h 2.195122 v 2.195122 H 6.585366 Z m 2.195122,0 h 2.195122 v 2.195122 H 8.780488 Z m 4.390244,0 h 2.195122 v 2.195122 h -2.195122 z m 2.195122,0 h 2.195122 v 2.195122 h -2.195122 z m 4.390244,0 h 2.195122 v 2.195122 h -2.195122 z m 2.195122,0 h 2.195122 v 2.195122 H 21.95122 Z m 2.195122,0 h 2.195122 v 2.195122 h -2.195122 z m 6.585366,0 h 2.195122 v 2.195122 h -2.195122 z m 2.195122,0 h 2.195122 v 2.195122 H 32.92683 Z m 2.195122,0 h 2.195122 v 2.195122 h -2.195122 z m 2.195122,0 h 2.195122 v 2.195122 h -2.195122 z m 2.195122,0 h 2.195122 v 2.195122 h -2.195122 z m 2.195122,0 h 2.195122 v 2.195122 h -2.195122 z m 8.780488,0 h 2.195122 v 2.195122 h -2.195122 z m 6.585366,0 h 2.195122 v 2.195122 h -2.195122 z m 2.195122,0 h 2.195122 v 2.195122 h -2.195122 z m 8.780488,0 h 2.195122 v 2.195122 h -2.195122 z m 13.170732,0 h 2.195122 v 2.195122 h -2.195122 z m 2.195122,0 h 2.195122 v 2.195122 H 83.414636 Z M 6.585366,19.756098 H 8.780488 V 21.95122 H 6.585366 Z m 2.195122,0 H 10.97561 V 21.95122 H 8.780488 Z m 6.585366,0 h 2.195122 v 2.195122 h -2.195122 z m 2.195122,0 h 2.195122 v 2.195122 h -2.195122 z m 2.195122,0 h 2.195122 v 2.195122 h -2.195122 z m 2.195122,0 h 2.195122 V 21.95122 H 21.95122 Z m 6.585366,0 h 2.195122 v 2.195122 h -2.195122 z m 4.390244,0 h 2.195122 V 21.95122 H 32.92683 Z m 4.390244,0 h 2.195122 v 2.195122 h -2.195122 z m 4.390244,0 h 2.195122 v 2.195122 h -2.195122 z m 2.195122,0 h 2.195122 V 21.95122 H 43.90244 Z m 2.195122,0 h 2.195122 v 2.195122 h -2.195122 z m 4.390244,0 h 2.195122 v 2.195122 h -2.195122 z m 4.390244,0 h 2.195122 V 21.95122 H 54.87805 Z m 2.195122,0 h 2.195122 v 2.195122 h -2.195122 z m 2.195122,0 h 2.195122 v 2.195122 h -2.195122 z m 2.195122,0 h 2.195122 v 2.195122 h -2.195122 z m 4.390244,0 h 2.195122 V 21.95122 H 65.85366 Z m 6.585366,0 h 2.195122 v 2.195122 h -2.195122 z m 6.585366,0 h 2.195122 v 2.195122 h -2.195122 z m 2.195122,0 h 2.195122 v 2.195122 h -2.195122 z m 2.195122,0 h 2.195122 v 2.195122 h -2.195122 z m 4.390244,0 h 2.195122 V 21.95122 H 87.80488 Z M 0,21.95122 h 2.195122 v 2.195122 H 0 Z m 4.390244,0 h 2.195122 v 2.195122 H 4.390244 Z m 2.195122,0 h 2.195122 v 2.195122 H 6.585366 Z m 6.585366,0 h 2.195122 v 2.195122 h -2.195122 z m 2.195122,0 h 2.195122 v 2.195122 h -2.195122 z m 2.195122,0 h 2.195122 v 2.195122 h -2.195122 z m 2.195122,0 h 2.195122 v 2.195122 h -2.195122 z m 13.170732,0 h 2.195122 v 2.195122 H 32.92683 Z m 2.195122,0 h 2.195122 v 2.195122 h -2.195122 z m 6.585366,0 h 2.195122 v 2.195122 h -2.195122 z m 4.390244,0 h 2.195122 v 2.195122 h -2.195122 z m 13.170732,0 h 2.195122 v 2.195122 h -2.195122 z m 2.195122,0 h 2.195122 v 2.195122 h -2.195122 z m 2.195122,0 h 2.195122 v 2.195122 h -2.195122 z m 2.195122,0 h 2.195122 v 2.195122 H 65.85366 Z m 4.390244,0 h 2.195122 v 2.195122 h -2.195122 z m 2.195122,0 h 2.195122 v 2.195122 h -2.195122 z m 6.585366,0 h 2.195122 v 2.195122 h -2.195122 z m 2.195122,0 h 2.195122 v 2.195122 h -2.195122 z m 4.390244,0 h 2.195122 v 2.195122 H 85.609758 Z M 0,24.146342 h 2.195122 v 2.195122 H 0 Z m 2.195122,0 h 2.195122 v 2.195122 H 2.195122 Z m 6.585366,0 h 2.195122 v 2.195122 H 8.780488 Z m 6.585366,0 h 2.195122 v 2.195122 h -2.195122 z m 8.780488,0 h 2.195122 v 2.195122 h -2.195122 z m 2.195122,0 h 2.195122 v 2.195122 h -2.195122 z m 2.195122,0 h 2.195122 v 2.195122 h -2.195122 z m 6.585366,0 h 2.195122 v 2.195122 h -2.195122 z m 2.195122,0 h 2.195122 v 2.195122 h -2.195122 z m 2.195122,0 h 2.195122 v 2.195122 h -2.195122 z m 4.390244,0 h 2.195122 v 2.195122 H 43.90244 Z m 4.390244,0 h 2.195122 v 2.195122 h -2.195122 z m 2.195122,0 h 2.195122 v 2.195122 h -2.195122 z m 10.97561,0 h 2.195122 v 2.195122 h -2.195122 z m 2.195122,0 h 2.195122 v 2.195122 h -2.195122 z m 6.585366,0 h 2.195122 v 2.195122 h -2.195122 z m 2.195122,0 h 2.195122 v 2.195122 h -2.195122 z m 2.195122,0 h 2.195122 v 2.195122 h -2.195122 z m 4.390244,0 h 2.195122 v 2.195122 h -2.195122 z m 2.195122,0 h 2.195122 v 2.195122 h -2.195122 z m 4.390244,0 h 2.195122 v 2.195122 H 85.609758 Z M 6.585366,26.341464 h 2.195122 v 2.195122 H 6.585366 Z m 4.390244,0 h 2.195122 v 2.195122 H 10.97561 Z m 2.195122,0 h 2.195122 v 2.195122 h -2.195122 z m 2.195122,0 h 2.195122 v 2.195122 h -2.195122 z m 4.390244,0 h 2.195122 v 2.195122 h -2.195122 z m 2.195122,0 h 2.195122 v 2.195122 H 21.95122 Z m 2.195122,0 h 2.195122 v 2.195122 h -2.195122 z m 2.195122,0 h 2.195122 v 2.195122 h -2.195122 z m 4.390244,0 h 2.195122 v 2.195122 h -2.195122 z m 4.390244,0 h 2.195122 v 2.195122 h -2.195122 z m 4.390244,0 h 2.195122 v 2.195122 h -2.195122 z m 2.195122,0 h 2.195122 v 2.195122 h -2.195122 z m 2.195122,0 h 2.195122 v 2.195122 H 43.90244 Z m 8.780488,0 h 2.195122 v 2.195122 h -2.195122 z m 4.390244,0 h 2.195122 v 2.195122 h -2.195122 z m 2.195122,0 h 2.195122 v 2.195122 h -2.195122 z m 6.585366,0 h 2.195122 v 2.195122 H 65.85366 Z m 2.195122,0 h 2.195122 v 2.195122 h -2.195122 z m 2.195122,0 h 2.195122 v 2.195122 h -2.195122 z m 2.195122,0 h 2.195122 v 2.195122 h -2.195122 z m 2.195122,0 h 2.195122 v 2.195122 h -2.195122 z m 4.390244,0 h 2.195122 v 2.195122 h -2.195122 z m 2.195122,0 h 2.195122 v 2.195122 h -2.195122 z m 2.195122,0 h 2.195122 v 2.195122 h -2.195122 z m 2.195122,0 h 2.195122 v 2.195122 H 85.609758 Z M 0,28.536586 h 2.195122 v 2.195122 H 0 Z m 6.585366,0 h 2.195122 v 2.195122 H 6.585366 Z m 2.195122,0 h 2.195122 v 2.195122 H 8.780488 Z m 2.195122,0 h 2.195122 v 2.195122 H 10.97561 Z m 6.585366,0 h 2.195122 v 2.195122 h -2.195122 z m 2.195122,0 h 2.195122 v 2.195122 h -2.195122 z m 2.195122,0 h 2.195122 v 2.195122 H 21.95122 Z m 6.585366,0 h 2.195122 v 2.195122 h -2.195122 z m 6.585366,0 h 2.195122 v 2.195122 h -2.195122 z m 2.195122,0 h 2.195122 v 2.195122 h -2.195122 z m 8.780488,0 h 2.195122 v 2.195122 h -2.195122 z m 2.195122,0 h 2.195122 v 2.195122 h -2.195122 z m 4.390244,0 h 2.195122 v 2.195122 h -2.195122 z m 2.195122,0 h 2.195122 v 2.195122 H 54.87805 Z m 8.780488,0 h 2.195122 v 2.195122 h -2.195122 z m 4.390244,0 h 2.195122 v 2.195122 h -2.195122 z m 4.390244,0 h 2.195122 v 2.195122 h -2.195122 z m 4.390244,0 h 2.195122 v 2.195122 H 76.82927 Z m 2.195122,0 h 2.195122 v 2.195122 h -2.195122 z m 2.195122,0 h 2.195122 v 2.195122 h -2.195122 z m 2.195122,0 h 2.195122 v 2.195122 H 83.414636 Z M 0,30.731708 H 2.195122 V 32.92683 H 0 Z m 2.195122,0 H 4.390244 V 32.92683 H 2.195122 Z m 4.390244,0 H 8.780488 V 32.92683 H 6.585366 Z m 6.585366,0 h 2.195122 v 2.195122 h -2.195122 z m 4.390244,0 h 2.195122 v 2.195122 h -2.195122 z m 4.390244,0 h 2.195122 V 32.92683 H 21.95122 Z m 6.585366,0 h 2.195122 v 2.195122 h -2.195122 z m 2.195122,0 h 2.195122 v 2.195122 h -2.195122 z m 2.195122,0 h 2.195122 V 32.92683 H 32.92683 Z m 4.390244,0 h 2.195122 v 2.195122 h -2.195122 z m 2.195122,0 h 2.195122 v 2.195122 h -2.195122 z m 8.780488,0 h 2.195122 v 2.195122 h -2.195122 z m 2.195122,0 h 2.195122 v 2.195122 h -2.195122 z m 2.195122,0 h 2.195122 v 2.195122 h -2.195122 z m 6.585366,0 h 2.195122 v 2.195122 h -2.195122 z m 6.585366,0 h 2.195122 V 32.92683 H 65.85366 Z m 6.585366,0 h 2.195122 v 2.195122 h -2.195122 z m 4.390244,0 h 2.195122 V 32.92683 H 76.82927 Z m 4.390244,0 h 2.195122 v 2.195122 h -2.195122 z m 6.585366,0 h 2.195122 V 32.92683 H 87.80488 Z M 2.195122,32.92683 h 2.195122 v 2.195122 H 2.195122 Z m 2.195122,0 h 2.195122 v 2.195122 H 4.390244 Z m 2.195122,0 h 2.195122 v 2.195122 H 6.585366 Z m 13.170732,0 h 2.195122 v 2.195122 h -2.195122 z m 2.195122,0 h 2.195122 v 2.195122 H 21.95122 Z m 8.780488,0 h 2.195122 v 2.195122 h -2.195122 z m 2.195122,0 h 2.195122 v 2.195122 H 32.92683 Z m 4.390244,0 h 2.195122 v 2.195122 h -2.195122 z m 6.585366,0 h 2.195122 v 2.195122 H 43.90244 Z m 6.585366,0 h 2.195122 v 2.195122 h -2.195122 z m 2.195122,0 h 2.195122 v 2.195122 h -2.195122 z m 4.390244,0 h 2.195122 v 2.195122 h -2.195122 z m 4.390244,0 h 2.195122 v 2.195122 h -2.195122 z m 6.585366,0 h 2.195122 v 2.195122 h -2.195122 z m 13.170732,0 h 2.195122 v 2.195122 h -2.195122 z m 2.195122,0 h 2.195122 v 2.195122 h -2.195122 z m 2.195122,0 h 2.195122 v 2.195122 h -2.195122 z m 2.195122,0 h 2.195122 v 2.195122 H 87.80488 Z M 0,35.121952 h 2.195122 v 2.195122 H 0 Z m 2.195122,0 h 2.195122 v 2.195122 H 2.195122 Z m 2.195122,0 h 2.195122 v 2.195122 H 4.390244 Z m 6.585366,0 h 2.195122 v 2.195122 H 10.97561 Z m 2.195122,0 h 2.195122 v 2.195122 h -2.195122 z m 2.195122,0 h 2.195122 v 2.195122 h -2.195122 z m 6.585366,0 h 2.195122 v 2.195122 H 21.95122 Z m 2.195122,0 h 2.195122 v 2.195122 h -2.195122 z m 2.195122,0 h 2.195122 v 2.195122 h -2.195122 z m 2.195122,0 h 2.195122 v 2.195122 h -2.195122 z m 2.195122,0 h 2.195122 v 2.195122 h -2.195122 z m 2.195122,0 h 2.195122 v 2.195122 H 32.92683 Z m 4.390244,0 h 2.195122 v 2.195122 h -2.195122 z m 6.585366,0 h 2.195122 v 2.195122 H 43.90244 Z m 4.390244,0 h 2.195122 v 2.195122 h -2.195122 z m 2.195122,0 h 2.195122 v 2.195122 h -2.195122 z m 2.195122,0 h 2.195122 v 2.195122 h -2.195122 z m 6.585366,0 h 2.195122 v 2.195122 h -2.195122 z m 2.195122,0 h 2.195122 v 2.195122 h -2.195122 z m 4.390244,0 h 2.195122 v 2.195122 H 65.85366 Z m 2.195122,0 h 2.195122 v 2.195122 h -2.195122 z m 2.195122,0 h 2.195122 v 2.195122 h -2.195122 z m 13.170732,0 h 2.195122 v 2.195122 H 83.414636 Z M 0,37.317074 h 2.195122 v 2.195122 H 0 Z m 4.390244,0 h 2.195122 v 2.195122 H 4.390244 Z m 6.585366,0 h 2.195122 v 2.195122 H 10.97561 Z m 10.97561,0 h 2.195122 v 2.195122 H 21.95122 Z m 2.195122,0 h 2.195122 v 2.195122 h -2.195122 z m 2.195122,0 h 2.195122 v 2.195122 h -2.195122 z m 2.195122,0 h 2.195122 v 2.195122 h -2.195122 z m 2.195122,0 h 2.195122 v 2.195122 h -2.195122 z m 10.97561,0 h 2.195122 v 2.195122 h -2.195122 z m 4.390244,0 h 2.195122 v 2.195122 h -2.195122 z m 4.390244,0 h 2.195122 v 2.195122 h -2.195122 z m 2.195122,0 h 2.195122 v 2.195122 h -2.195122 z m 2.195122,0 h 2.195122 v 2.195122 H 54.87805 Z m 2.195122,0 h 2.195122 v 2.195122 h -2.195122 z m 13.170732,0 h 2.195122 v 2.195122 h -2.195122 z m 2.195122,0 h 2.195122 v 2.195122 h -2.195122 z m 2.195122,0 h 2.195122 v 2.195122 h -2.195122 z m 2.195122,0 h 2.195122 v 2.195122 H 76.82927 Z m 2.195122,0 h 2.195122 v 2.195122 h -2.195122 z m 2.195122,0 h 2.195122 v 2.195122 h -2.195122 z m 4.390244,0 h 2.195122 v 2.195122 H 85.609758 Z M 2.195122,39.512196 h 2.195122 v 2.195122 H 2.195122 Z m 2.195122,0 h 2.195122 v 2.195122 H 4.390244 Z m 2.195122,0 h 2.195122 v 2.195122 H 6.585366 Z m 2.195122,0 h 2.195122 v 2.195122 H 8.780488 Z m 2.195122,0 h 2.195122 v 2.195122 H 10.97561 Z m 2.195122,0 h 2.195122 v 2.195122 h -2.195122 z m 2.195122,0 h 2.195122 v 2.195122 h -2.195122 z m 2.195122,0 h 2.195122 v 2.195122 h -2.195122 z m 2.195122,0 h 2.195122 v 2.195122 h -2.195122 z m 2.195122,0 h 2.195122 v 2.195122 H 21.95122 Z m 10.97561,0 h 2.195122 v 2.195122 H 32.92683 Z m 2.195122,0 h 2.195122 v 2.195122 h -2.195122 z m 2.195122,0 h 2.195122 v 2.195122 h -2.195122 z m 8.780488,0 h 2.195122 v 2.195122 h -2.195122 z m 2.195122,0 h 2.195122 v 2.195122 h -2.195122 z m 2.195122,0 h 2.195122 v 2.195122 h -2.195122 z m 8.780488,0 h 2.195122 v 2.195122 h -2.195122 z m 2.195122,0 h 2.195122 v 2.195122 h -2.195122 z m 6.585366,0 h 2.195122 v 2.195122 h -2.195122 z m 6.585366,0 h 2.195122 v 2.195122 h -2.195122 z m 4.390244,0 h 2.195122 v 2.195122 h -2.195122 z m 2.195122,0 h 2.195122 v 2.195122 h -2.195122 z m 2.195122,0 h 2.195122 v 2.195122 h -2.195122 z m 2.195122,0 h 2.195122 v 2.195122 h -2.195122 z m 2.195122,0 h 2.195122 v 2.195122 H 87.80488 Z M 0,41.707318 H 2.195122 V 43.90244 H 0 Z m 2.195122,0 H 4.390244 V 43.90244 H 2.195122 Z m 2.195122,0 H 6.585366 V 43.90244 H 4.390244 Z m 6.585366,0 h 2.195122 V 43.90244 H 10.97561 Z m 6.585366,0 h 2.195122 v 2.195122 h -2.195122 z m 6.585366,0 h 2.195122 v 2.195122 h -2.195122 z m 2.195122,0 h 2.195122 v 2.195122 h -2.195122 z m 2.195122,0 h 2.195122 v 2.195122 h -2.195122 z m 2.195122,0 h 2.195122 v 2.195122 h -2.195122 z m 2.195122,0 h 2.195122 V 43.90244 H 32.92683 Z m 2.195122,0 h 2.195122 v 2.195122 h -2.195122 z m 2.195122,0 h 2.195122 v 2.195122 h -2.195122 z m 2.195122,0 h 2.195122 v 2.195122 h -2.195122 z m 6.585366,0 h 2.195122 v 2.195122 h -2.195122 z m 2.195122,0 h 2.195122 v 2.195122 h -2.195122 z m 8.780488,0 h 2.195122 v 2.195122 h -2.195122 z m 2.195122,0 h 2.195122 v 2.195122 h -2.195122 z m 4.390244,0 h 2.195122 v 2.195122 h -2.195122 z m 2.195122,0 h 2.195122 V 43.90244 H 65.85366 Z m 4.390244,0 h 2.195122 v 2.195122 h -2.195122 z m 13.170732,0 h 2.195122 v 2.195122 h -2.195122 z m 2.195122,0 H 87.80488 V 43.90244 H 85.609758 Z M 6.585366,43.90244 h 2.195122 v 2.195122 H 6.585366 Z m 2.195122,0 h 2.195122 v 2.195122 H 8.780488 Z m 4.390244,0 h 2.195122 v 2.195122 h -2.195122 z m 2.195122,0 h 2.195122 v 2.195122 h -2.195122 z m 2.195122,0 h 2.195122 v 2.195122 h -2.195122 z m 2.195122,0 h 2.195122 v 2.195122 h -2.195122 z m 2.195122,0 h 2.195122 v 2.195122 H 21.95122 Z m 4.390244,0 h 2.195122 v 2.195122 h -2.195122 z m 8.780488,0 h 2.195122 v 2.195122 h -2.195122 z m 4.390244,0 h 2.195122 v 2.195122 h -2.195122 z m 13.170732,0 h 2.195122 v 2.195122 h -2.195122 z m 4.390244,0 h 2.195122 v 2.195122 h -2.195122 z m 2.195122,0 h 2.195122 v 2.195122 h -2.195122 z m 8.780488,0 h 2.195122 v 2.195122 h -2.195122 z m 2.195122,0 h 2.195122 v 2.195122 h -2.195122 z m 2.195122,0 h 2.195122 v 2.195122 h -2.195122 z m 2.195122,0 h 2.195122 v 2.195122 h -2.195122 z m 4.390244,0 h 2.195122 v 2.195122 h -2.195122 z m 8.780488,0 h 2.195122 v 2.195122 H 87.80488 Z M 6.585366,46.097562 h 2.195122 v 2.195122 H 6.585366 Z m 2.195122,0 h 2.195122 v 2.195122 H 8.780488 Z m 2.195122,0 h 2.195122 v 2.195122 H 10.97561 Z m 4.390244,0 h 2.195122 v 2.195122 h -2.195122 z m 4.390244,0 h 2.195122 v 2.195122 h -2.195122 z m 2.195122,0 h 2.195122 v 2.195122 H 21.95122 Z m 2.195122,0 h 2.195122 v 2.195122 h -2.195122 z m 2.195122,0 h 2.195122 v 2.195122 h -2.195122 z m 2.195122,0 h 2.195122 v 2.195122 h -2.195122 z m 10.97561,0 h 2.195122 v 2.195122 h -2.195122 z m 4.390244,0 h 2.195122 v 2.195122 H 43.90244 Z m 2.195122,0 h 2.195122 v 2.195122 h -2.195122 z m 2.195122,0 h 2.195122 v 2.195122 h -2.195122 z m 2.195122,0 h 2.195122 v 2.195122 h -2.195122 z m 8.780488,0 h 2.195122 v 2.195122 h -2.195122 z m 2.195122,0 h 2.195122 v 2.195122 h -2.195122 z m 2.195122,0 h 2.195122 v 2.195122 h -2.195122 z m 2.195122,0 h 2.195122 v 2.195122 H 65.85366 Z m 6.585366,0 h 2.195122 v 2.195122 h -2.195122 z m 4.390244,0 h 2.195122 v 2.195122 H 76.82927 Z m 4.390244,0 h 2.195122 v 2.195122 h -2.195122 z m 4.390244,0 h 2.195122 v 2.195122 h -2.195122 z m 2.195122,0 h 2.195122 v 2.195122 H 87.80488 Z M 0,48.292684 h 2.195122 v 2.195122 H 0 Z m 10.97561,0 h 2.195122 v 2.195122 H 10.97561 Z m 2.195122,0 h 2.195122 v 2.195122 h -2.195122 z m 2.195122,0 h 2.195122 v 2.195122 h -2.195122 z m 2.195122,0 h 2.195122 v 2.195122 h -2.195122 z m 2.195122,0 h 2.195122 v 2.195122 h -2.195122 z m 2.195122,0 h 2.195122 v 2.195122 H 21.95122 Z m 4.390244,0 h 2.195122 v 2.195122 h -2.195122 z m 2.195122,0 h 2.195122 v 2.195122 h -2.195122 z m 6.585366,0 h 2.195122 v 2.195122 h -2.195122 z m 2.195122,0 h 2.195122 v 2.195122 h -2.195122 z m 6.585366,0 h 2.195122 v 2.195122 H 43.90244 Z m 2.195122,0 h 2.195122 v 2.195122 h -2.195122 z m 2.195122,0 h 2.195122 v 2.195122 h -2.195122 z m 4.390244,0 h 2.195122 v 2.195122 h -2.195122 z m 4.390244,0 h 2.195122 v 2.195122 h -2.195122 z m 2.195122,0 h 2.195122 v 2.195122 h -2.195122 z m 13.170732,0 h 2.195122 v 2.195122 h -2.195122 z m 2.195122,0 h 2.195122 v 2.195122 h -2.195122 z m 2.195122,0 h 2.195122 v 2.195122 H 76.82927 Z M 2.195122,50.487806 h 2.195122 v 2.195122 H 2.195122 Z m 6.585366,0 h 2.195122 v 2.195122 H 8.780488 Z m 6.585366,0 h 2.195122 v 2.195122 h -2.195122 z m 2.195122,0 h 2.195122 v 2.195122 h -2.195122 z m 6.585366,0 h 2.195122 v 2.195122 h -2.195122 z m 6.585366,0 h 2.195122 v 2.195122 h -2.195122 z m 6.585366,0 h 2.195122 v 2.195122 h -2.195122 z m 4.390244,0 h 2.195122 v 2.195122 h -2.195122 z m 4.390244,0 h 2.195122 v 2.195122 h -2.195122 z m 6.585366,0 h 2.195122 v 2.195122 h -2.195122 z m 4.390244,0 h 2.195122 v 2.195122 h -2.195122 z m 2.195122,0 h 2.195122 v 2.195122 h -2.195122 z m 2.195122,0 h 2.195122 v 2.195122 h -2.195122 z m 2.195122,0 h 2.195122 v 2.195122 h -2.195122 z m 2.195122,0 h 2.195122 v 2.195122 H 65.85366 Z m 2.195122,0 h 2.195122 v 2.195122 h -2.195122 z m 2.195122,0 h 2.195122 v 2.195122 h -2.195122 z m 4.390244,0 h 2.195122 v 2.195122 h -2.195122 z m 6.585366,0 h 2.195122 v 2.195122 h -2.195122 z m 2.195122,0 h 2.195122 v 2.195122 h -2.195122 z m 2.195122,0 h 2.195122 v 2.195122 h -2.195122 z m 2.195122,0 h 2.195122 v 2.195122 H 87.80488 Z M 0,52.682928 H 2.195122 V 54.87805 H 0 Z m 2.195122,0 H 4.390244 V 54.87805 H 2.195122 Z m 4.390244,0 H 8.780488 V 54.87805 H 6.585366 Z m 2.195122,0 H 10.97561 V 54.87805 H 8.780488 Z m 4.390244,0 h 2.195122 v 2.195122 h -2.195122 z m 2.195122,0 h 2.195122 v 2.195122 h -2.195122 z m 10.97561,0 h 2.195122 v 2.195122 h -2.195122 z m 2.195122,0 h 2.195122 v 2.195122 h -2.195122 z m 2.195122,0 h 2.195122 v 2.195122 h -2.195122 z m 4.390244,0 h 2.195122 v 2.195122 h -2.195122 z m 2.195122,0 h 2.195122 v 2.195122 h -2.195122 z m 2.195122,0 h 2.195122 v 2.195122 h -2.195122 z m 8.780488,0 h 2.195122 v 2.195122 h -2.195122 z m 13.170732,0 h 2.195122 v 2.195122 h -2.195122 z m 2.195122,0 h 2.195122 v 2.195122 h -2.195122 z m 4.390244,0 h 2.195122 v 2.195122 h -2.195122 z m 4.390244,0 h 2.195122 v 2.195122 h -2.195122 z m 2.195122,0 h 2.195122 v 2.195122 h -2.195122 z m 6.585366,0 h 2.195122 v 2.195122 h -2.195122 z m 2.195122,0 h 2.195122 V 54.87805 H 83.414636 Z M 0,54.87805 h 2.195122 v 2.195122 H 0 Z m 6.585366,0 h 2.195122 v 2.195122 H 6.585366 Z m 2.195122,0 h 2.195122 v 2.195122 H 8.780488 Z m 2.195122,0 h 2.195122 v 2.195122 H 10.97561 Z m 4.390244,0 h 2.195122 v 2.195122 h -2.195122 z m 4.390244,0 h 2.195122 v 2.195122 h -2.195122 z m 17.560976,0 h 2.195122 v 2.195122 h -2.195122 z m 2.195122,0 h 2.195122 v 2.195122 h -2.195122 z m 4.390244,0 h 2.195122 v 2.195122 H 43.90244 Z m 2.195122,0 h 2.195122 v 2.195122 h -2.195122 z m 4.390244,0 h 2.195122 v 2.195122 h -2.195122 z m 2.195122,0 h 2.195122 v 2.195122 h -2.195122 z m 2.195122,0 h 2.195122 v 2.195122 H 54.87805 Z m 2.195122,0 h 2.195122 v 2.195122 h -2.195122 z m 4.390244,0 h 2.195122 v 2.195122 h -2.195122 z m 2.195122,0 h 2.195122 v 2.195122 h -2.195122 z m 2.195122,0 h 2.195122 v 2.195122 H 65.85366 Z m 2.195122,0 h 2.195122 v 2.195122 h -2.195122 z m 4.390244,0 h 2.195122 v 2.195122 h -2.195122 z m 2.195122,0 h 2.195122 v 2.195122 h -2.195122 z m 4.390244,0 h 2.195122 v 2.195122 h -2.195122 z m 2.195122,0 h 2.195122 v 2.195122 h -2.195122 z m 4.390244,0 h 2.195122 v 2.195122 h -2.195122 z m 2.195122,0 h 2.195122 v 2.195122 H 87.80488 Z M 0,57.073172 h 2.195122 v 2.195122 H 0 Z m 4.390244,0 h 2.195122 v 2.195122 H 4.390244 Z m 6.585366,0 h 2.195122 v 2.195122 H 10.97561 Z m 2.195122,0 h 2.195122 v 2.195122 h -2.195122 z m 13.170732,0 h 2.195122 v 2.195122 h -2.195122 z m 4.390244,0 h 2.195122 v 2.195122 h -2.195122 z m 2.195122,0 h 2.195122 v 2.195122 H 32.92683 Z m 2.195122,0 h 2.195122 v 2.195122 h -2.195122 z m 2.195122,0 h 2.195122 v 2.195122 h -2.195122 z m 17.560976,0 h 2.195122 v 2.195122 H 54.87805 Z m 4.390244,0 h 2.195122 v 2.195122 h -2.195122 z m 4.390244,0 h 2.195122 v 2.195122 h -2.195122 z m 2.195122,0 h 2.195122 v 2.195122 H 65.85366 Z m 2.195122,0 h 2.195122 v 2.195122 h -2.195122 z m 8.780488,0 h 2.195122 v 2.195122 H 76.82927 Z m 8.780488,0 h 2.195122 v 2.195122 h -2.195122 z m 2.195122,0 h 2.195122 v 2.195122 H 87.80488 Z M 0,59.268294 h 2.195122 v 2.195122 H 0 Z m 4.390244,0 h 2.195122 v 2.195122 H 4.390244 Z m 2.195122,0 h 2.195122 v 2.195122 H 6.585366 Z m 4.390244,0 h 2.195122 v 2.195122 H 10.97561 Z m 4.390244,0 h 2.195122 v 2.195122 h -2.195122 z m 2.195122,0 h 2.195122 v 2.195122 h -2.195122 z m 2.195122,0 h 2.195122 v 2.195122 h -2.195122 z m 2.195122,0 h 2.195122 v 2.195122 H 21.95122 Z m 4.390244,0 h 2.195122 v 2.195122 h -2.195122 z m 6.585366,0 h 2.195122 v 2.195122 H 32.92683 Z m 10.97561,0 h 2.195122 v 2.195122 H 43.90244 Z m 4.390244,0 h 2.195122 v 2.195122 h -2.195122 z m 2.195122,0 h 2.195122 v 2.195122 h -2.195122 z m 4.390244,0 h 2.195122 v 2.195122 H 54.87805 Z m 13.170732,0 h 2.195122 v 2.195122 h -2.195122 z m 2.195122,0 h 2.195122 v 2.195122 h -2.195122 z m 6.585366,0 h 2.195122 v 2.195122 H 76.82927 Z m 2.195122,0 h 2.195122 v 2.195122 h -2.195122 z m 2.195122,0 h 2.195122 v 2.195122 h -2.195122 z m 2.195122,0 h 2.195122 v 2.195122 h -2.195122 z m 2.195122,0 h 2.195122 v 2.195122 H 85.609758 Z M 4.390244,61.463416 h 2.195122 v 2.195122 H 4.390244 Z m 2.195122,0 h 2.195122 v 2.195122 H 6.585366 Z m 6.585366,0 h 2.195122 v 2.195122 h -2.195122 z m 2.195122,0 h 2.195122 v 2.195122 h -2.195122 z m 4.390244,0 h 2.195122 v 2.195122 h -2.195122 z m 2.195122,0 h 2.195122 v 2.195122 H 21.95122 Z m 4.390244,0 h 2.195122 v 2.195122 h -2.195122 z m 6.585366,0 h 2.195122 v 2.195122 H 32.92683 Z m 4.390244,0 h 2.195122 v 2.195122 h -2.195122 z m 8.780488,0 h 2.195122 v 2.195122 h -2.195122 z m 4.390244,0 h 2.195122 v 2.195122 h -2.195122 z m 2.195122,0 h 2.195122 v 2.195122 h -2.195122 z m 10.97561,0 h 2.195122 v 2.195122 h -2.195122 z m 4.390244,0 h 2.195122 v 2.195122 h -2.195122 z m 6.585366,0 h 2.195122 v 2.195122 h -2.195122 z m 8.780488,0 h 2.195122 v 2.195122 h -2.195122 z m 2.195122,0 h 2.195122 v 2.195122 h -2.195122 z m 2.195122,0 h 2.195122 v 2.195122 H 87.80488 Z M 0,63.658538 H 2.195122 V 65.85366 H 0 Z m 2.195122,0 H 4.390244 V 65.85366 H 2.195122 Z m 6.585366,0 H 10.97561 V 65.85366 H 8.780488 Z m 2.195122,0 h 2.195122 V 65.85366 H 10.97561 Z m 6.585366,0 h 2.195122 v 2.195122 h -2.195122 z m 8.780488,0 h 2.195122 v 2.195122 h -2.195122 z m 4.390244,0 h 2.195122 v 2.195122 h -2.195122 z m 4.390244,0 h 2.195122 v 2.195122 h -2.195122 z m 6.585366,0 h 2.195122 v 2.195122 h -2.195122 z m 2.195122,0 h 2.195122 V 65.85366 H 43.90244 Z m 8.780488,0 h 2.195122 v 2.195122 h -2.195122 z m 4.390244,0 h 2.195122 v 2.195122 h -2.195122 z m 6.585366,0 h 2.195122 v 2.195122 h -2.195122 z m 10.97561,0 h 2.195122 v 2.195122 h -2.195122 z m 2.195122,0 h 2.195122 V 65.85366 H 76.82927 Z m 2.195122,0 h 2.195122 v 2.195122 h -2.195122 z m 2.195122,0 h 2.195122 v 2.195122 h -2.195122 z m 4.390244,0 h 2.195122 v 2.195122 h -2.195122 z m 2.195122,0 h 2.195122 V 65.85366 H 87.80488 Z M 0,65.85366 h 2.195122 v 2.195122 H 0 Z m 2.195122,0 h 2.195122 v 2.195122 H 2.195122 Z m 8.780488,0 h 2.195122 v 2.195122 H 10.97561 Z m 2.195122,0 h 2.195122 v 2.195122 h -2.195122 z m 4.390244,0 h 2.195122 v 2.195122 h -2.195122 z m 2.195122,0 h 2.195122 v 2.195122 h -2.195122 z m 2.195122,0 h 2.195122 v 2.195122 H 21.95122 Z m 2.195122,0 h 2.195122 v 2.195122 h -2.195122 z m 2.195122,0 h 2.195122 v 2.195122 h -2.195122 z m 2.195122,0 h 2.195122 v 2.195122 h -2.195122 z m 2.195122,0 h 2.195122 v 2.195122 h -2.195122 z m 6.585366,0 h 2.195122 v 2.195122 h -2.195122 z m 4.390244,0 h 2.195122 v 2.195122 h -2.195122 z m 2.195122,0 h 2.195122 v 2.195122 H 43.90244 Z m 4.390244,0 h 2.195122 v 2.195122 h -2.195122 z m 2.195122,0 h 2.195122 v 2.195122 h -2.195122 z m 4.390244,0 h 2.195122 v 2.195122 H 54.87805 Z m 2.195122,0 h 2.195122 v 2.195122 h -2.195122 z m 4.390244,0 h 2.195122 v 2.195122 h -2.195122 z m 6.585366,0 h 2.195122 v 2.195122 h -2.195122 z m 4.390244,0 h 2.195122 v 2.195122 h -2.195122 z m 2.195122,0 h 2.195122 v 2.195122 h -2.195122 z m 4.390244,0 h 2.195122 v 2.195122 h -2.195122 z m 2.195122,0 h 2.195122 v 2.195122 h -2.195122 z m 2.195122,0 h 2.195122 v 2.195122 h -2.195122 z m 4.390244,0 h 2.195122 v 2.195122 H 87.80488 Z M 0,68.048782 h 2.195122 v 2.195122 H 0 Z m 2.195122,0 h 2.195122 v 2.195122 H 2.195122 Z m 2.195122,0 h 2.195122 v 2.195122 H 4.390244 Z m 2.195122,0 h 2.195122 v 2.195122 H 6.585366 Z m 8.780488,0 h 2.195122 v 2.195122 h -2.195122 z m 2.195122,0 h 2.195122 v 2.195122 h -2.195122 z m 8.780488,0 h 2.195122 v 2.195122 h -2.195122 z m 10.97561,0 h 2.195122 v 2.195122 h -2.195122 z m 2.195122,0 h 2.195122 v 2.195122 h -2.195122 z m 6.585366,0 h 2.195122 v 2.195122 h -2.195122 z m 6.585366,0 h 2.195122 v 2.195122 h -2.195122 z m 4.390244,0 h 2.195122 v 2.195122 h -2.195122 z m 2.195122,0 h 2.195122 v 2.195122 h -2.195122 z m 2.195122,0 h 2.195122 v 2.195122 h -2.195122 z m 4.390244,0 h 2.195122 v 2.195122 H 65.85366 Z m 2.195122,0 h 2.195122 v 2.195122 h -2.195122 z m 2.195122,0 h 2.195122 v 2.195122 h -2.195122 z m 2.195122,0 h 2.195122 v 2.195122 h -2.195122 z m 2.195122,0 h 2.195122 v 2.195122 h -2.195122 z m 2.195122,0 h 2.195122 v 2.195122 H 76.82927 Z m 2.195122,0 h 2.195122 v 2.195122 h -2.195122 z m 4.390244,0 h 2.195122 v 2.195122 h -2.195122 z m 2.195122,0 h 2.195122 v 2.195122 H 85.609758 Z M 0,70.243904 h 2.195122 v 2.195122 H 0 Z m 2.195122,0 h 2.195122 v 2.195122 H 2.195122 Z m 2.195122,0 h 2.195122 v 2.195122 H 4.390244 Z m 8.780488,0 h 2.195122 v 2.195122 h -2.195122 z m 2.195122,0 h 2.195122 v 2.195122 h -2.195122 z m 6.585366,0 h 2.195122 v 2.195122 H 21.95122 Z m 2.195122,0 h 2.195122 v 2.195122 h -2.195122 z m 2.195122,0 h 2.195122 v 2.195122 h -2.195122 z m 6.585366,0 h 2.195122 v 2.195122 H 32.92683 Z m 2.195122,0 h 2.195122 v 2.195122 h -2.195122 z m 2.195122,0 h 2.195122 v 2.195122 h -2.195122 z m 2.195122,0 h 2.195122 v 2.195122 h -2.195122 z m 6.585366,0 h 2.195122 v 2.195122 h -2.195122 z m 4.390244,0 h 2.195122 v 2.195122 h -2.195122 z m 2.195122,0 h 2.195122 v 2.195122 h -2.195122 z m 4.390244,0 h 2.195122 v 2.195122 h -2.195122 z m 4.390244,0 h 2.195122 v 2.195122 h -2.195122 z m 2.195122,0 h 2.195122 v 2.195122 h -2.195122 z m 2.195122,0 h 2.195122 v 2.195122 H 65.85366 Z m 2.195122,0 h 2.195122 v 2.195122 h -2.195122 z m 2.195122,0 h 2.195122 v 2.195122 h -2.195122 z m 2.195122,0 h 2.195122 v 2.195122 h -2.195122 z m 2.195122,0 h 2.195122 v 2.195122 h -2.195122 z m 2.195122,0 h 2.195122 v 2.195122 H 76.82927 Z m 2.195122,0 h 2.195122 v 2.195122 h -2.195122 z m 2.195122,0 h 2.195122 v 2.195122 h -2.195122 z m 4.390244,0 h 2.195122 v 2.195122 h -2.195122 z m 2.195122,0 h 2.195122 v 2.195122 H 87.80488 Z m -70.243904,2.195122 h 2.195122 v 2.195122 h -2.195122 z m 2.195122,0 h 2.195122 v 2.195122 h -2.195122 z m 10.97561,0 h 2.195122 v 2.195122 h -2.195122 z m 4.390244,0 h 2.195122 v 2.195122 h -2.195122 z m 6.585366,0 h 2.195122 v 2.195122 h -2.195122 z m 6.585366,0 h 2.195122 v 2.195122 h -2.195122 z m 19.756098,0 h 2.195122 v 2.195122 h -2.195122 z m 2.195122,0 h 2.195122 v 2.195122 h -2.195122 z m 8.780488,0 h 2.195122 v 2.195122 h -2.195122 z m 2.195122,0 h 2.195122 v 2.195122 h -2.195122 z m 2.195122,0 h 2.195122 v 2.195122 h -2.195122 z m 2.195122,0 h 2.195122 v 2.195122 H 85.609758 Z M 0,74.634148 H 2.195122 V 76.82927 H 0 Z m 2.195122,0 H 4.390244 V 76.82927 H 2.195122 Z m 2.195122,0 H 6.585366 V 76.82927 H 4.390244 Z m 2.195122,0 H 8.780488 V 76.82927 H 6.585366 Z m 2.195122,0 H 10.97561 V 76.82927 H 8.780488 Z m 2.195122,0 h 2.195122 V 76.82927 H 10.97561 Z m 2.195122,0 h 2.195122 v 2.195122 h -2.195122 z m 4.390244,0 h 2.195122 v 2.195122 h -2.195122 z m 2.195122,0 h 2.195122 v 2.195122 h -2.195122 z m 2.195122,0 h 2.195122 V 76.82927 H 21.95122 Z m 2.195122,0 h 2.195122 v 2.195122 h -2.195122 z m 8.780488,0 h 2.195122 V 76.82927 H 32.92683 Z m 13.170732,0 h 2.195122 v 2.195122 h -2.195122 z m 2.195122,0 h 2.195122 v 2.195122 h -2.195122 z m 2.195122,0 h 2.195122 v 2.195122 h -2.195122 z m 2.195122,0 h 2.195122 v 2.195122 h -2.195122 z m 6.585366,0 h 2.195122 v 2.195122 h -2.195122 z m 4.390244,0 h 2.195122 v 2.195122 h -2.195122 z m 2.195122,0 h 2.195122 V 76.82927 H 65.85366 Z m 2.195122,0 h 2.195122 v 2.195122 h -2.195122 z m 2.195122,0 h 2.195122 v 2.195122 h -2.195122 z m 4.390244,0 h 2.195122 v 2.195122 h -2.195122 z m 4.390244,0 h 2.195122 v 2.195122 h -2.195122 z m 4.390244,0 h 2.195122 v 2.195122 h -2.195122 z m 2.195122,0 H 87.80488 V 76.82927 H 85.609758 Z M 0,76.82927 h 2.195122 v 2.195122 H 0 Z m 13.170732,0 h 2.195122 v 2.195122 h -2.195122 z m 6.585366,0 h 2.195122 v 2.195122 h -2.195122 z m 2.195122,0 h 2.195122 v 2.195122 H 21.95122 Z m 4.390244,0 h 2.195122 v 2.195122 h -2.195122 z m 4.390244,0 h 2.195122 v 2.195122 h -2.195122 z m 2.195122,0 h 2.195122 v 2.195122 H 32.92683 Z m 2.195122,0 h 2.195122 v 2.195122 h -2.195122 z m 4.390244,0 h 2.195122 v 2.195122 h -2.195122 z m 4.390244,0 h 2.195122 v 2.195122 H 43.90244 Z m 4.390244,0 h 2.195122 v 2.195122 h -2.195122 z m 8.780488,0 h 2.195122 v 2.195122 h -2.195122 z m 4.390244,0 h 2.195122 v 2.195122 h -2.195122 z m 2.195122,0 h 2.195122 v 2.195122 h -2.195122 z m 6.585366,0 h 2.195122 v 2.195122 h -2.195122 z m 8.780488,0 h 2.195122 v 2.195122 h -2.195122 z m 2.195122,0 h 2.195122 v 2.195122 H 81.219514 Z M 0,79.024392 h 2.195122 v 2.195122 H 0 Z m 4.390244,0 h 2.195122 v 2.195122 H 4.390244 Z m 2.195122,0 h 2.195122 v 2.195122 H 6.585366 Z m 2.195122,0 h 2.195122 v 2.195122 H 8.780488 Z m 4.390244,0 h 2.195122 v 2.195122 h -2.195122 z m 4.390244,0 h 2.195122 v 2.195122 h -2.195122 z m 4.390244,0 h 2.195122 v 2.195122 H 21.95122 Z m 4.390244,0 h 2.195122 v 2.195122 h -2.195122 z m 2.195122,0 h 2.195122 v 2.195122 h -2.195122 z m 4.390244,0 h 2.195122 v 2.195122 H 32.92683 Z m 4.390244,0 h 2.195122 v 2.195122 h -2.195122 z m 6.585366,0 h 2.195122 v 2.195122 H 43.90244 Z m 2.195122,0 h 2.195122 v 2.195122 h -2.195122 z m 2.195122,0 h 2.195122 v 2.195122 h -2.195122 z m 2.195122,0 h 2.195122 v 2.195122 h -2.195122 z m 2.195122,0 h 2.195122 v 2.195122 h -2.195122 z m 2.195122,0 h 2.195122 v 2.195122 H 54.87805 Z m 2.195122,0 h 2.195122 v 2.195122 h -2.195122 z m 6.585366,0 h 2.195122 v 2.195122 h -2.195122 z m 2.195122,0 h 2.195122 v 2.195122 H 65.85366 Z m 2.195122,0 h 2.195122 v 2.195122 h -2.195122 z m 2.195122,0 h 2.195122 v 2.195122 h -2.195122 z m 2.195122,0 h 2.195122 v 2.195122 h -2.195122 z m 2.195122,0 h 2.195122 v 2.195122 h -2.195122 z m 2.195122,0 h 2.195122 v 2.195122 H 76.82927 Z m 2.195122,0 h 2.195122 v 2.195122 h -2.195122 z m 4.390244,0 h 2.195122 v 2.195122 h -2.195122 z m 2.195122,0 h 2.195122 v 2.195122 h -2.195122 z m 2.195122,0 h 2.195122 v 2.195122 H 87.80488 Z M 0,81.219514 h 2.195122 v 2.195122 H 0 Z m 4.390244,0 h 2.195122 v 2.195122 H 4.390244 Z m 2.195122,0 h 2.195122 v 2.195122 H 6.585366 Z m 2.195122,0 h 2.195122 v 2.195122 H 8.780488 Z m 4.390244,0 h 2.195122 v 2.195122 h -2.195122 z m 4.390244,0 h 2.195122 v 2.195122 h -2.195122 z m 2.195122,0 h 2.195122 v 2.195122 h -2.195122 z m 2.195122,0 h 2.195122 v 2.195122 H 21.95122 Z m 2.195122,0 h 2.195122 v 2.195122 h -2.195122 z m 2.195122,0 h 2.195122 v 2.195122 h -2.195122 z m 6.585366,0 h 2.195122 v 2.195122 H 32.92683 Z m 6.585366,0 h 2.195122 v 2.195122 h -2.195122 z m 6.585366,0 h 2.195122 v 2.195122 h -2.195122 z m 2.195122,0 h 2.195122 v 2.195122 h -2.195122 z m 2.195122,0 h 2.195122 v 2.195122 h -2.195122 z m 8.780488,0 h 2.195122 v 2.195122 h -2.195122 z m 4.390244,0 h 2.195122 v 2.195122 h -2.195122 z m 15.365854,0 h 2.195122 v 2.195122 h -2.195122 z m 2.195122,0 h 2.195122 v 2.195122 h -2.195122 z m 2.195122,0 h 2.195122 v 2.195122 h -2.195122 z m 4.390244,0 h 2.195122 v 2.195122 H 87.80488 Z M 0,83.414636 h 2.195122 v 2.195122 H 0 Z m 4.390244,0 h 2.195122 v 2.195122 H 4.390244 Z m 2.195122,0 h 2.195122 v 2.195122 H 6.585366 Z m 2.195122,0 h 2.195122 v 2.195122 H 8.780488 Z m 4.390244,0 h 2.195122 v 2.195122 h -2.195122 z m 8.780488,0 h 2.195122 v 2.195122 H 21.95122 Z m 4.390244,0 h 2.195122 v 2.195122 h -2.195122 z m 2.195122,0 h 2.195122 v 2.195122 h -2.195122 z m 4.390244,0 h 2.195122 v 2.195122 H 32.92683 Z m 10.97561,0 h 2.195122 v 2.195122 H 43.90244 Z m 2.195122,0 h 2.195122 v 2.195122 h -2.195122 z m 2.195122,0 h 2.195122 v 2.195122 h -2.195122 z m 4.390244,0 h 2.195122 v 2.195122 h -2.195122 z m 2.195122,0 h 2.195122 v 2.195122 H 54.87805 Z m 2.195122,0 h 2.195122 v 2.195122 h -2.195122 z m 2.195122,0 h 2.195122 v 2.195122 h -2.195122 z m 2.195122,0 h 2.195122 v 2.195122 h -2.195122 z m 15.365854,0 h 2.195122 v 2.195122 H 76.82927 Z m 2.195122,0 h 2.195122 v 2.195122 h -2.195122 z m 6.585366,0 h 2.195122 v 2.195122 h -2.195122 z m 2.195122,0 h 2.195122 v 2.195122 H 87.80488 Z M 0,85.609758 H 2.195122 V 87.80488 H 0 Z m 13.170732,0 h 2.195122 v 2.195122 h -2.195122 z m 6.585366,0 h 2.195122 v 2.195122 h -2.195122 z m 6.585366,0 h 2.195122 v 2.195122 h -2.195122 z m 2.195122,0 h 2.195122 v 2.195122 h -2.195122 z m 4.390244,0 h 2.195122 V 87.80488 H 32.92683 Z m 4.390244,0 h 2.195122 v 2.195122 h -2.195122 z m 2.195122,0 h 2.195122 v 2.195122 h -2.195122 z m 2.195122,0 h 2.195122 v 2.195122 h -2.195122 z m 4.390244,0 h 2.195122 v 2.195122 h -2.195122 z m 2.195122,0 h 2.195122 v 2.195122 h -2.195122 z m 2.195122,0 h 2.195122 v 2.195122 h -2.195122 z m 2.195122,0 h 2.195122 v 2.195122 h -2.195122 z m 4.390244,0 h 2.195122 v 2.195122 h -2.195122 z m 4.390244,0 h 2.195122 v 2.195122 h -2.195122 z m 4.390244,0 h 2.195122 V 87.80488 H 65.85366 Z m 2.195122,0 h 2.195122 v 2.195122 h -2.195122 z m 2.195122,0 h 2.195122 v 2.195122 h -2.195122 z m 13.170732,0 h 2.195122 v 2.195122 h -2.195122 z m 4.390244,0 h 2.195122 V 87.80488 H 87.80488 Z M 0,87.80488 h 2.195122 v 2.195122 H 0 Z m 2.195122,0 h 2.195122 v 2.195122 H 2.195122 Z m 2.195122,0 h 2.195122 v 2.195122 H 4.390244 Z m 2.195122,0 h 2.195122 v 2.195122 H 6.585366 Z m 2.195122,0 h 2.195122 v 2.195122 H 8.780488 Z m 2.195122,0 h 2.195122 v 2.195122 H 10.97561 Z m 2.195122,0 h 2.195122 v 2.195122 h -2.195122 z m 6.585366,0 h 2.195122 v 2.195122 h -2.195122 z m 8.780488,0 h 2.195122 v 2.195122 h -2.195122 z m 6.585366,0 h 2.195122 v 2.195122 h -2.195122 z m 4.390244,0 h 2.195122 v 2.195122 h -2.195122 z m 6.585366,0 h 2.195122 v 2.195122 h -2.195122 z m 4.390244,0 h 2.195122 v 2.195122 h -2.195122 z m 2.195122,0 h 2.195122 v 2.195122 h -2.195122 z m 2.195122,0 h 2.195122 v 2.195122 H 54.87805 Z m 4.390244,0 h 2.195122 v 2.195122 h -2.195122 z m 6.585366,0 h 2.195122 v 2.195122 H 65.85366 Z m 2.195122,0 h 2.195122 v 2.195122 h -2.195122 z m 2.195122,0 h 2.195122 v 2.195122 h -2.195122 z m 2.195122,0 h 2.195122 v 2.195122 h -2.195122 z m 2.195122,0 h 2.195122 v 2.195122 h -2.195122 z m 4.390244,0 h 2.195122 v 2.195122 h -2.195122 z m 2.195122,0 h 2.195122 v 2.195122 h -2.195122 z m 2.195122,0 h 2.195122 v 2.195122 h -2.195122 z"
     id="path4"
     style="stroke-width:2.19512" />
</svg>
